<svg width="30" height="30" viewBox="0 0 30 30" fill="none" xmlns="http://www.w3.org/2000/svg">
<path d="M11.5441 16V14.5981C11.0931 14.5514 10.6373 14.4393 10.1765 14.2617C9.72549 14.0748 9.33333 13.8318 9 13.5327L9.76471 12.4393C10.1078 12.7009 10.4559 12.9112 10.8088 13.0701C11.1618 13.229 11.5392 13.3084 11.9412 13.3084C12.4216 13.3084 12.7794 13.2056 13.0147 13C13.25 12.785 13.3676 12.486 13.3676 12.1028C13.3676 11.7944 13.2696 11.5374 13.0735 11.3318C12.8775 11.1262 12.6275 10.9393 12.3235 10.771C12.0294 10.6028 11.7108 10.4439 11.3676 10.2944C11.0245 10.1355 10.701 9.95327 10.3971 9.74766C10.1029 9.53271 9.85784 9.28037 9.66176 8.99065C9.46569 8.69159 9.36765 8.32243 9.36765 7.88318C9.36765 7.22897 9.56373 6.68692 9.95588 6.25701C10.348 5.81776 10.8775 5.54206 11.5441 5.42991V4H12.7206V5.40187C13.1912 5.45794 13.5931 5.58879 13.9265 5.79439C14.2696 5.99065 14.5784 6.2243 14.8529 6.49533L13.9853 7.43458C13.7108 7.19159 13.4461 7.00935 13.1912 6.88785C12.9363 6.75701 12.6324 6.69159 12.2794 6.69159C11.8775 6.69159 11.5637 6.78972 11.3382 6.98598C11.1127 7.1729 11 7.4486 11 7.81308C11 8.09346 11.098 8.3271 11.2941 8.51402C11.4902 8.69159 11.7353 8.85981 12.0294 9.01869C12.3333 9.16822 12.6569 9.32243 13 9.48131C13.3431 9.63084 13.6618 9.81308 13.9559 10.028C14.2598 10.243 14.5098 10.5093 14.7059 10.8271C14.902 11.1355 15 11.5234 15 11.9907C15 12.6636 14.8039 13.229 14.4118 13.6869C14.0196 14.1355 13.4559 14.4252 12.7206 14.5561V16H11.5441Z" fill="#EB174B"/>
<path d="M3.85715 28L13.368 18.5056L18.9281 24.0562L28 15" stroke="#0A467E" stroke-width="1.5" stroke-linecap="round" stroke-linejoin="round"/>
<path d="M24.2857 15H28V18.7143" stroke="#0A467E" stroke-width="1.5" stroke-linecap="round" stroke-linejoin="round"/>
<path d="M23.7275 10C22.586 4.85081 17.9927 1 12.5 1C6.14873 1 1 6.14873 1 12.5C1 15.8674 2.44736 18.8968 4.75392 21" stroke="#EB174B" stroke-width="1.5" stroke-linecap="round" stroke-linejoin="round"/>
</svg>
