<svg width="30" height="30" viewBox="0 0 30 30" fill="none" xmlns="http://www.w3.org/2000/svg">
<g clip-path="url(#clip0_2_369)">
<path d="M6 11V10C6 8.89543 6.89543 8 8 8H11C12.1046 8 13 8.89543 13 10V11" stroke="#0A467E" stroke-width="1.5" stroke-miterlimit="10" stroke-linecap="round" stroke-linejoin="round"/>
<path d="M18 29L29 29" stroke="#0A467E" stroke-width="1.5" stroke-miterlimit="10" stroke-linecap="round" stroke-linejoin="round"/>
<path d="M27 29V3C27 1.89543 26.1046 1 25 1H22C20.8954 1 20 1.89543 20 3V10.363" stroke="#0A467E" stroke-width="1.5" stroke-miterlimit="10" stroke-linecap="round" stroke-linejoin="round"/>
<path d="M20 29V6C20 4.89543 19.1046 4 18 4H15C13.8954 4 13 4.89543 13 6V11" stroke="#0A467E" stroke-width="1.5" stroke-miterlimit="10" stroke-linecap="round" stroke-linejoin="round"/>
<path d="M1 19.3105L7.64413 22.0336C8.14853 22.2403 8.71545 22.2322 9.21372 22.0111L16 19.0001" stroke="#EB174B" stroke-width="1.5"/>
<path d="M12 17.0001V16.0001C12 14.8955 11.1046 14.0001 10 14.0001H8C6.89543 14.0001 6 14.8955 6 16.0001V17.0001" stroke="#EB174B" stroke-width="1.5"/>
<rect x="1" y="17.0001" width="15" height="9" rx="2" stroke="#EB174B" stroke-width="1.5"/>
</g>
<defs>
<clipPath id="clip0_2_369">
<rect width="30" height="30" fill="white"/>
</clipPath>
</defs>
</svg>
